<?xml version="1.0" standalone="no"?>
<!DOCTYPE svg PUBLIC "-//W3C//DTD SVG 20010904//EN"
 "http://www.w3.org/TR/2001/REC-SVG-20010904/DTD/svg10.dtd">
<svg version="1.0" xmlns="http://www.w3.org/2000/svg"
 width="754.000000pt" height="754.000000pt" viewBox="0 0 754.000000 754.000000"
 preserveAspectRatio="xMidYMid meet">

<g transform="translate(0.000000,754.000000) scale(0.100000,-0.100000)"
fill="#000000" stroke="none">
<path d="M5663 6840 c-99 -21 -188 -99 -219 -192 -22 -67 -15 -177 14 -234 49
-95 168 -159 282 -151 245 17 368 300 209 481 -71 81 -181 118 -286 96z m116
-206 c78 -55 44 -174 -51 -174 -55 0 -102 44 -102 95 0 73 93 121 153 79z"/>
<path d="M4630 6545 l0 -165 163 2 162 3 3 163 2 162 -165 0 -165 0 0 -165z"/>
<path d="M2510 6565 l0 -95 90 0 90 0 0 95 0 95 -90 0 -90 0 0 -95z"/>
<path d="M3743 6588 c-21 -18 -139 -127 -263 -243 -187 -175 -400 -372 -815
-754 -362 -333 -464 -429 -487 -455 l-27 -31 -1 -197 0 -198 -272 -2 -273 -3
-3 -1299 c-1 -952 1 -1302 9 -1312 9 -10 42 -14 130 -14 l119 0 2 1148 3 1147
138 1 137 2 0 -1112 c0 -611 0 -1128 0 -1148 l0 -38 105 0 105 0 2 918 3 917
130 3 c72 1 140 0 153 -3 l23 -6 -2 -912 -2 -912 120 -3 120 -3 7 77 c3 42 6
578 6 1191 l0 1113 268 -2 267 -3 3 -1188 2 -1188 123 3 122 3 3 1453 2 1452
145 0 145 0 0 -1453 0 -1454 400 0 400 0 0 1149 0 1148 145 0 145 0 1 -1135
c1 -624 2 -1141 3 -1147 1 -10 90 -14 403 -16 355 -2 403 0 417 14 14 14 16
142 16 1304 0 1264 0 1289 -19 1300 -12 6 -118 10 -275 10 l-256 0 0 223 0
222 -82 81 c-46 44 -180 170 -298 280 -337 312 -653 608 -927 866 -139 131
-259 238 -267 238 -9 0 -32 -15 -53 -32z m237 -624 c80 -78 240 -231 356 -340
116 -110 330 -314 477 -454 l267 -255 0 -107 0 -108 -161 0 -161 0 -78 71 -79
71 -34 -27 -34 -28 5 -215 c6 -250 20 -238 -124 -105 -49 45 -106 95 -126 110
l-37 28 -1 290 -1 290 -97 90 c-54 50 -155 144 -225 210 -71 66 -131 118 -135
116 -4 -1 -82 -73 -174 -159 l-168 -156 0 -243 0 -243 -257 0 -258 -1 -65 -60
c-190 -178 -209 -200 -214 -237 -3 -21 -5 -90 -5 -154 l-1 -118 -114 0 -114 0
-1 303 -1 302 175 161 c250 232 814 768 1084 1031 111 109 116 112 136 96 11
-10 85 -81 165 -159z"/>
<path d="M1810 6490 l0 -111 113 3 112 3 3 108 3 107 -116 0 -115 0 0 -110z"/>
<path d="M6190 6165 l0 -115 115 0 116 0 -3 113 -3 112 -112 3 -113 3 0 -116z"/>
<path d="M1157 6223 c-4 -3 -7 -43 -7 -89 0 -95 -2 -94 118 -94 l72 0 0 95 0
95 -88 0 c-49 0 -92 -3 -95 -7z"/>
<path d="M5022 6043 l3 -178 170 0 170 0 0 175 0 175 -173 3 -172 2 2 -177z"/>
<path d="M2415 6186 c-62 -28 -105 -94 -105 -162 0 -111 121 -205 225 -174 93
28 140 95 133 190 -5 68 -33 112 -88 140 -45 23 -120 26 -165 6z"/>
<path d="M1714 6107 c-3 -8 -4 -49 -2 -93 l3 -79 100 0 100 0 5 88 c3 49 3 91
1 93 -2 2 -49 4 -103 4 -73 0 -100 -3 -104 -13z"/>
<path d="M5604 5981 c-2 -2 -4 -82 -4 -178 l0 -173 165 0 165 0 0 175 0 174
-161 3 c-88 2 -163 1 -165 -1z"/>
<path d="M6190 5695 l0 -105 115 0 115 0 0 105 0 105 -115 0 -115 0 0 -105z"/>
<path d="M1800 5545 l0 -135 130 0 130 0 0 135 0 135 -130 0 -130 0 0 -135z"/>
<path d="M1150 5580 l0 -90 95 0 95 0 0 90 0 90 -95 0 -95 0 0 -90z"/>
<path d="M6192 5193 l3 -118 113 -3 112 -3 0 121 0 120 -115 0 -116 0 3 -117z"/>
<path d="M5707 5243 c-4 -3 -7 -55 -7 -114 l0 -107 108 -4 c59 -3 110 -3 115
-1 4 2 7 56 7 119 l0 114 -108 0 c-60 0 -112 -3 -115 -7z"/>
<path d="M1150 5090 l0 -90 95 0 95 0 0 29 c0 15 3 56 6 90 l7 61 -102 0 -101
0 0 -90z"/>
<path d="M1630 5015 l0 -85 105 0 105 0 0 85 0 85 -105 0 -105 0 0 -85z"/>
<path d="M6190 4485 l0 -295 115 0 115 0 0 295 0 295 -115 0 -115 0 0 -295z"/>
<path d="M1150 4580 l0 -91 93 3 92 3 3 88 3 87 -96 0 -95 0 0 -90z"/>
<path d="M1150 4075 l0 -85 95 0 95 0 0 85 0 85 -95 0 -95 0 0 -85z"/>
<path d="M6192 3683 l3 -208 113 -3 112 -3 0 211 0 210 -115 0 -115 0 2 -207z"/>
<path d="M1150 3560 l0 -90 94 0 93 0 6 82 c3 45 3 86 1 90 -3 5 -48 8 -100 8
l-94 0 0 -90z"/>
<path d="M6190 3085 l0 -105 115 0 115 0 0 105 0 105 -115 0 -115 0 0 -105z"/>
<path d="M1150 3080 l0 -101 98 3 97 3 3 98 3 97 -101 0 -100 0 0 -100z"/>
<path d="M6194 2637 c-2 -7 -3 -65 -2 -128 l3 -114 110 0 110 0 3 128 3 127
-111 0 c-82 0 -112 -3 -116 -13z"/>
<path d="M1157 2583 c-4 -3 -7 -48 -7 -100 l0 -93 95 0 95 0 0 100 0 100 -88
0 c-49 0 -92 -3 -95 -7z"/>
<path d="M1384 1819 c-26 -13 -29 -19 -111 -229 -168 -431 -214 -554 -220
-582 -9 -43 15 -58 92 -58 72 0 84 9 112 85 l19 50 150 3 150 2 23 -55 c33
-79 41 -85 120 -85 70 0 91 10 91 44 0 11 -29 94 -64 185 -36 91 -103 267
-150 390 -47 124 -92 231 -99 239 -19 18 -86 25 -113 11z m85 -448 c17 -40 31
-79 31 -87 0 -11 -17 -14 -75 -14 l-74 0 25 68 c54 146 47 143 93 33z"/>
<path d="M1973 1809 c-18 -18 -19 -829 -1 -847 7 -7 40 -12 79 -12 93 0 99 10
99 153 l0 108 25 -3 c20 -2 43 -29 108 -128 l82 -125 67 -3 c75 -3 108 9 108
39 0 12 -31 77 -70 145 -67 122 -69 125 -47 133 36 14 85 73 102 121 40 111
14 237 -66 324 -78 86 -121 100 -314 104 -120 3 -163 0 -172 -9z m337 -224
c24 -22 39 -73 33 -109 -3 -14 -19 -37 -35 -51 -25 -21 -40 -25 -94 -25 l-64
0 0 104 0 105 33 3 c49 5 105 -7 127 -27z"/>
<path d="M3482 1808 c-9 -9 -12 -116 -12 -419 l0 -408 22 -15 c28 -20 117 -21
144 -2 17 13 19 30 22 170 l3 157 117 -3 117 -3 3 -150 c4 -182 6 -185 98
-185 99 0 94 -24 94 441 0 460 7 429 -101 429 -37 0 -70 -5 -77 -12 -8 -8 -12
-58 -12 -160 l0 -148 -120 0 -120 0 0 144 c0 175 -1 176 -99 176 -39 0 -72 -5
-79 -12z"/>
<path d="M4326 1798 c-14 -19 -16 -75 -16 -409 0 -376 1 -387 21 -413 18 -23
28 -26 79 -26 96 0 90 -28 90 431 0 257 -4 407 -10 420 -9 16 -22 19 -80 19
-60 0 -71 -3 -84 -22z"/>
<path d="M4671 1802 c-9 -17 89 -286 256 -702 l58 -145 41 -3 c25 -2 45 2 51
10 14 18 62 138 163 403 49 127 105 274 126 327 47 122 44 128 -66 128 -50 0
-81 -4 -88 -12 -9 -11 -89 -213 -152 -380 -12 -32 -25 -58 -29 -58 -3 0 -40
90 -81 201 -40 110 -82 212 -92 225 -18 22 -27 24 -98 24 -66 0 -81 -3 -89
-18z"/>
<path d="M5558 1809 c-17 -9 -18 -40 -18 -419 0 -358 2 -411 16 -424 13 -14
51 -16 258 -16 175 0 245 3 254 12 16 16 16 160 0 176 -8 8 -63 12 -180 12
l-168 0 0 64 0 64 115 4 c75 2 118 7 127 16 7 7 14 43 16 80 6 98 -6 106 -154
110 l-114 4 0 64 0 64 173 0 c121 0 177 4 185 12 7 7 12 43 12 90 0 66 -3 79
-19 88 -26 13 -480 13 -503 -1z"/>
<path d="M2935 1797 c-184 -61 -294 -216 -295 -413 0 -176 121 -348 284 -404
81 -27 187 -27 262 1 59 22 144 94 144 121 0 16 -106 118 -121 118 -5 0 -29
-11 -55 -25 -144 -77 -314 29 -314 195 0 85 44 160 115 198 62 32 156 20 226
-30 14 -9 27 -3 77 36 33 26 63 54 66 62 9 23 -60 91 -122 121 -45 22 -72 28
-141 30 -52 2 -102 -2 -126 -10z"/>
</g>
</svg>
